Coordinates
version=1
nRows=8
nColumns=34
inDegrees=yes

Units are S.I. units (second, meters, Newtons, ...)
If the header above contains a line with 'inDegrees', this indicates whether rotational values are in degrees (yes) or radians (no).

endheader
time	pelvis_tilt	pelvis_list	pelvis_rotation	pelvis_tx	pelvis_ty	pelvis_tz	hip_flexion_r	hip_adduction_r	hip_rotation_r	knee_angle_r	ankle_angle_r	subtalar_angle_r	mtp_angle_r	hip_flexion_l	hip_adduction_l	hip_rotation_l	knee_angle_l	ankle_angle_l	subtalar_angle_l	mtp_angle_l	lumbar_extension	lumbar_bending	lumbar_rotation	arm_flex_r	arm_add_r	arm_rot_r	elbow_flex_r	pro_sup_r	arm_flex_l	arm_add_l	arm_rot_l	elbow_flex_l	pro_sup_l
      1.95000000	     -7.42958214	     -0.13410915	      0.04714223	     -0.87384308	      1.12551031	     -0.11774269	     -2.54682458	     -5.70212012	    -11.81611809	      0.47718566	      9.51636204	     -3.34979851	      0.00000000	     -0.98559428	     -0.52443917	    -18.11111286	      0.00000000	      9.86238355	      2.29684646	      0.00000000	      8.34314206	     -3.39357692	      5.27559800	    -13.26206826	     -4.36579424	    -11.10173849	     26.59185830	     89.40760519	   -187.24874209	   -171.10021388	   -180.09230601	     12.66505262	     87.80275405
      1.96666670	     -7.19667570	     -0.08459628	      0.65436970	     -0.87398648	      1.12531543	     -0.12234050	     -2.87326447	     -5.81501279	    -12.17632499	      0.60166950	      9.79634248	     -3.65022389	      0.00000000	     -1.10027725	     -0.40851146	    -17.38171430	      0.00000000	      9.63971555	      2.04090528	      0.00000000	      8.13783023	     -3.74024995	      4.21368228	    -12.75484442	     -3.77507902	    -13.43080905	     26.62884927	     90.38759756	   -188.25568191	   -170.72521624	   -180.17924945	     14.14869368	     87.41998001
      1.98333330	     -7.14482137	      0.02948919	      1.06902753	     -0.87401596	      1.12447232	     -0.12547618	     -2.90693551	     -6.04535191	    -12.38439041	      0.84804767	     10.06554508	     -4.01865626	      0.00000000	     -1.03501286	     -0.18807527	    -17.04033588	      0.00000000	      9.54530264	      2.26911763	      0.00000000	      8.17757512	     -4.16416088	      3.73736143	    -12.43458849	     -3.55636558	    -13.55052203	     26.91074090	     90.49121157	   -188.32065220	   -170.56893489	   -180.18459307	     14.13685968	     87.39013784
      2.00000000	     -7.13629350	      0.08305808	      1.36141986	     -0.87377941	      1.12402844	     -0.12723937	     -2.88840597	     -6.20505632	    -12.51845578	      1.07706117	     10.00737663	     -4.53979851	      0.00000000	     -0.95933659	     -0.02428361	    -16.67675364	      0.00000000	      9.55286478	      2.16902505	      0.00000000	      7.95023796	     -4.47433403	      2.30223549	    -11.36277416	     -3.25493364	    -13.91425625	     27.64292089	     90.83828678	   -188.94988709	   -170.42339875	   -180.17003549	     14.86128373	     87.29206680
      2.01666670	     -7.27198185	      0.19267348	      1.30905999	     -0.87355836	      1.12399642	     -0.12968832	     -2.41937921	     -6.53151115	    -12.66103575	      1.81255301	     10.30615821	     -4.94532999	      0.00000000	     -0.80465851	      0.21669081	    -16.59006734	      0.00000000	      9.62014538	      2.12539251	      0.00000000	      7.58967102	     -4.83129873	      1.87421329	    -10.26589228	     -3.03637209	    -13.85702318	     28.25579992	     90.98860946	   -188.84721994	   -170.33700410	   -180.18161345	     15.35199804	     87.25372135
      2.03333330	     -7.44597697	      0.17317856	      1.22670444	     -0.87331666	      1.12394607	     -0.13395743	     -1.84008848	     -6.72594263	    -12.57250139	      2.60732241	     10.25791946	     -5.84821431	      0.00000000	     -0.65238779	      0.35349382	    -16.38236920	      0.00000000	      9.82100947	      1.90064307	      0.00000000	      6.88924030	     -5.14789725	      0.72172035	     -8.89572834	     -2.89826750	    -12.82546804	     29.58618510	     91.85877128	   -189.54118814	   -170.13799003	   -180.50847772	     17.70929626	     86.98629808
      2.05000000	     -7.73884347	      0.25463832	      1.09884163	     -0.87329210	      1.12375229	     -0.14020886	     -0.80538512	     -7.17968448	    -12.52475007	      3.93924771	     10.30137105	     -6.74430315	      0.00000000	     -0.32618685	      0.66030031	    -16.29402908	      0.11338137	     10.15873826	      1.84229109	      0.00000000	      6.40952052	     -5.43489445	     -0.08989694	     -7.71882974	     -2.85727588	    -12.01725255	     30.93084317	     92.28831892	   -189.51443199	   -170.19983619	   -180.70596034	     18.44114938	     86.86457391
      2.06666670	     -8.01639867	      0.38670295	      1.20424395	     -0.87361541	      1.12342267	     -0.14861726	      0.55578033	     -7.81034441	    -12.25559753	      5.91283532	     10.33197863	     -8.18097521	      0.00000000	      0.05978342	      1.09166328	    -15.86226814	      0.28610197	     10.68618684	      1.74867564	      0.00000000	      5.88470869	     -5.75690265	     -0.69364990	     -6.95033260	     -2.93347687	    -11.15877072	     32.36030376	     92.62406274	   -189.32430905	   -170.22171052	   -180.83839216	     19.70054187	     86.79474021
